<svg xmlns="http://www.w3.org/2000/svg" width="800" height="1000" viewBox="0 0 800 1000" fill="none">
<defs><linearGradient id="bg" x2="800" y2="1000" gradientUnits="userSpaceOnUse"><stop stop-color="#323139"/><stop offset="1" stop-color="#101016"/></linearGradient><linearGradient id="skin" x1="241" y1="250" x2="586" y2="650" gradientUnits="userSpaceOnUse"><stop stop-color="#d1d0d3"/><stop offset=".43" stop-color="#939297"/><stop offset="1" stop-color="#48474e"/></linearGradient><linearGradient id="neck" x1="330" y1="690" x2="482" y2="890" gradientUnits="userSpaceOnUse"><stop stop-color="#88878e"/><stop offset="1" stop-color="#37363e"/></linearGradient><radialGradient id="light"><stop stop-color="#f0eff2" stop-opacity=".26"/><stop offset="1" stop-color="#f0eff2" stop-opacity="0"/></radialGradient><pattern id="grid" width="50" height="50" patternUnits="userSpaceOnUse"><path d="M50 0H0V50" stroke="#fff" stroke-opacity=".035"/></pattern></defs>
<rect width="800" height="1000" rx="36" fill="url(#bg)"/><rect width="800" height="1000" rx="36" fill="url(#grid)"/>
<ellipse cx="386" cy="426" rx="330" ry="425" fill="url(#light)"/>
<path d="M308 661l-17 136-118 60-84 143h622l-89-144-123-61-17-135" fill="url(#neck)"/>
<path d="M293 789q108 86 207 0l74 35q-51 113-175 132-129-22-176-132z" fill="#191920"/><path d="M89 1000l84-143 50-33q47 110 176 132 124-19 175-132l48 32 89 144" fill="#25242c"/>
<path d="M222 425q-41-36-41 18l18 90q6 31 42 34M568 425q41-36 41 18l-18 90q-6 31-42 34" fill="#77767c"/>
<path d="M222 352q-3-140 174-155 165 9 179 155l-18 208q-8 61-51 109l-61 51q-46 26-88 0l-62-51q-44-48-53-109z" fill="url(#skin)"/>
<path d="M217 415l-17-90q-17-137 125-169 41-50 141-16 103 3 130 115 15 66-21 160l-16-98q-51-1-80-53-89 82-241 63z" fill="#29282e"/>
<path d="M230 310q139-21 226-99M238 281q126-20 193-82M478 221q57 20 81 78" stroke="#4d4c53" stroke-width="5" stroke-linecap="round"/>
<path d="M256 418q48-29 96-1M443 417q49-28 95 1" stroke="#3e3d44" stroke-width="15" stroke-linecap="round"/>
<path d="M263 448q41-32 83 0-40 19-83 0M447 448q40-32 82 0-40 19-82 0" fill="#b5b4b9" stroke="#57565d" stroke-width="3"/><ellipse cx="305" cy="445" rx="11" ry="13" fill="#45444b"/><ellipse cx="488" cy="445" rx="11" ry="13" fill="#45444b"/><circle cx="308" cy="441" r="3" fill="#dedde0"/><circle cx="491" cy="441" r="3" fill="#dedde0"/>
<path d="M398 440l-25 106q23 22 49 1" stroke="#64636b" stroke-width="5" stroke-linecap="round"/><path d="M389 459l-12 74" stroke="#ceccd1" stroke-opacity=".6" stroke-width="7" stroke-linecap="round"/>
<path d="M343 601q28-5 53-12 27 10 57 12-30 32-58 28-27 3-52-28" fill="#77757e"/><path d="M343 601q51 10 110 0" stroke="#48464f" stroke-width="3"/><path d="M373 668q25 10 49-1" stroke="#aeacb3" stroke-opacity=".4" stroke-width="4"/>
<g stroke="#f1f0f6" stroke-opacity=".22" stroke-width="1"><path d="M241 351l64 94 91-84 92 84 71-94M241 351l-1 158 65-64 67 101-75 57-57-94M559 351l-2 158-69-64-66 102 76 56 59-94M305 445h183M305 445l91 156 92-156M372 546h50M297 603l99-2 102 2-53 94-49-96-40 96zM240 509l116 188M557 509L445 697M396 361v336"/></g>
<g fill="#e8e7ee"><circle cx="241" cy="351" r="3"/><circle cx="559" cy="351" r="3"/><circle cx="305" cy="445" r="4"/><circle cx="488" cy="445" r="4"/><circle cx="396" cy="361" r="3"/><circle cx="372" cy="546" r="3"/><circle cx="422" cy="547" r="3"/><circle cx="240" cy="509" r="3"/><circle cx="557" cy="509" r="3"/><circle cx="297" cy="603" r="3"/><circle cx="498" cy="603" r="3"/><circle cx="396" cy="601" r="3"/><circle cx="356" cy="697" r="3"/><circle cx="445" cy="697" r="3"/></g>
<g stroke="#a5a4b0" stroke-opacity=".45"><path d="M126 303v423m-9-423h18m-18 423h18M659 303v423m-9-423h18m-18 423h18M179 764h431m-431-9v18m431-18v18"/><path d="M78 110V78h32M690 78h32v32M78 890v32h32M690 922h32v-32"/></g>
<g fill="#d6d4df" font-family="monospace" font-size="12" letter-spacing="3"><text x="80" y="58">U / FACE STUDY</text><text x="552" y="58">PLATE 001</text><text x="80" y="958">FORM · LIGHT · PERSPECTIVE</text></g>
</svg>
